<?xml version="1.0" ?><!DOCTYPE svg  PUBLIC '-//W3C//DTD SVG 1.1//EN'  'http://www.w3.org/Graphics/SVG/1.1/DTD/svg11.dtd'><svg enable-background="new 0 0 24 24" height="24px" id="Layer_1" version="1.1" viewBox="0 0 24 24" width="24px" xml:space="preserve" xmlns="http://www.w3.org/2000/svg" xmlns:xlink="http://www.w3.org/1999/xlink"><g><path d="M20.9,0H1.1C0.5,0,0,0.5,0,1.1v21.8C0,23.5,0.5,24,1.1,24h19.8c0.6,0,1.1-0.5,1.1-1.1V1.1C22,0.5,21.5,0,20.9,0z M20,22H2   V2h18V22z"/><path d="M6.3,18.7c0.4,0.4,1,0.4,1.4,0l4.1-4.1c0.4-0.4,0.4-1,0-1.4c-0.4-0.4-1-0.4-1.4,0L7,16.7l-1.4-1.4c-0.4-0.4-1-0.4-1.4,0   c-0.4,0.4-0.4,1,0,1.4L6.3,18.7z"/><rect height="1" width="8" x="9" y="8"/><rect height="1" width="8" x="9" y="11"/><rect height="1" width="4" x="13" y="13"/><polygon points="9,19 17,19 17,18 10,18  "/><polygon points="11,17 17,17 17,16 12,16  "/><rect height="1" width="8" x="9" y="6"/><path d="M8,6H5v3h3V6z M7,8H6V7h1V8z"/><path d="M8,11H5v3h3V11z M7,13H6v-1h1V13z"/></g></svg>