<?xml version="1.0" ?><!DOCTYPE svg  PUBLIC '-//W3C//DTD SVG 1.1//EN'  'http://www.w3.org/Graphics/SVG/1.1/DTD/svg11.dtd'><svg enable-background="new 0 0 90 90" height="90px" id="Layer_1" version="1.1" viewBox="0 0 90 90" width="90px" xml:space="preserve" xmlns="http://www.w3.org/2000/svg" xmlns:xlink="http://www.w3.org/1999/xlink"><path d="M45.043,6.93L0.592,32.56v50.972h88.767l0.048-50.962L45.043,6.93z M85.66,79.833H65.356V31.647  c0-1.021-0.828-1.85-1.85-1.85s-1.85,0.829-1.85,1.85v48.186h-33.3V31.647c0-1.021-0.829-1.85-1.85-1.85s-1.85,0.829-1.85,1.85  v48.186H4.292V34.698l40.749-23.495l40.636,23.485L85.66,79.833z M39.458,33.582v7.245h11.098v-7.245c0-3.061-2.488-5.55-5.548-5.55  C41.947,28.032,39.458,30.521,39.458,33.582z M46.856,33.582v3.544h-3.699v-3.544c0-1.02,0.83-1.85,1.85-1.85  C46.027,31.732,46.856,32.562,46.856,33.582z M43.266,66.882h3.7v-11.1h-3.7V66.882z M78.32,55.782h-3.699v11.1h3.699V55.782z   M11.707,66.882h3.7v-11.1h-3.7V66.882z"/></svg>